<svg xmlns="http://www.w3.org/2000/svg" width="24" height="24" viewBox="0 0 24 24">
  <path id="Icon_material-phone" data-name="Icon material-phone" d="M9.327,14.887a20.2,20.2,0,0,0,8.787,8.787l2.933-2.933a1.326,1.326,0,0,1,1.36-.32,15.209,15.209,0,0,0,4.76.76A1.337,1.337,0,0,1,28.5,22.513v4.653A1.337,1.337,0,0,1,27.167,28.5,22.665,22.665,0,0,1,4.5,5.833,1.337,1.337,0,0,1,5.833,4.5H10.5a1.337,1.337,0,0,1,1.333,1.333,15.147,15.147,0,0,0,.76,4.76,1.338,1.338,0,0,1-.333,1.36L9.327,14.887Z" transform="translate(-4.5 -4.5)"/>
</svg>
