<svg xmlns="http://www.w3.org/2000/svg" width="24" height="25.846" viewBox="0 0 24 25.846">
  <path id="Icon_ionic-ios-mail-open" data-name="Icon ionic-ios-mail-open" d="M26.769,12.508c-.231-.231-9.133-9.312-9.133-9.312a3.169,3.169,0,0,0-4.523.006s-8.862,9.029-9.133,9.312a2.318,2.318,0,0,0-.606,1.506V26.25A1.852,1.852,0,0,0,5.221,28.1H25.529a1.852,1.852,0,0,0,1.846-1.846V13.962A2.221,2.221,0,0,0,26.769,12.508Zm-1.119,2.44L20.971,19.84a.112.112,0,0,0,0,.162l4.344,4.627a.749.749,0,0,1,0,1.062.752.752,0,0,1-1.062,0l-8.712-9.3a.227.227,0,0,0-.335,0L6.5,25.685a.752.752,0,0,1-1.062,0,.749.749,0,0,1,0-1.062L9.785,20a.123.123,0,0,0,0-.162l-4.7-4.892a1.316,1.316,0,0,1,.929-2.065H24.733A1.362,1.362,0,0,1,25.65,14.948Z" transform="translate(-3.375 -2.25)"/>
</svg>
