<svg xmlns="http://www.w3.org/2000/svg" width="24" height="24" viewBox="0 0 24 24">
  <path id="Icon_awesome-user-circle" data-name="Icon awesome-user-circle" d="M12,.563a12,12,0,1,0,12,12A12,12,0,0,0,12,.563Zm0,4.645A4.258,4.258,0,1,1,7.742,9.466,4.258,4.258,0,0,1,12,5.208Zm0,16.645a9.272,9.272,0,0,1-7.089-3.3,5.4,5.4,0,0,1,4.766-2.894,1.184,1.184,0,0,1,.344.053A6.407,6.407,0,0,0,12,16.046a6.382,6.382,0,0,0,1.979-.334,1.184,1.184,0,0,1,.344-.053,5.4,5.4,0,0,1,4.766,2.894A9.272,9.272,0,0,1,12,21.853Z" transform="translate(0 -0.563)"/>
</svg>
