<svg xmlns="http://www.w3.org/2000/svg" width="24" height="27.429" viewBox="0 0 24 27.429">
  <path id="Icon_awesome-unlock" data-name="Icon awesome-unlock" d="M21.429,13.714H8.143V8.191a3.857,3.857,0,1,1,7.714-.048V9a1.283,1.283,0,0,0,1.286,1.286h1.714A1.283,1.283,0,0,0,20.143,9V8.143a8.143,8.143,0,1,0-16.286.08v5.491H2.571A2.572,2.572,0,0,0,0,16.286v8.571a2.572,2.572,0,0,0,2.571,2.571H21.429A2.572,2.572,0,0,0,24,24.857V16.286A2.572,2.572,0,0,0,21.429,13.714Z" transform="translate(0 0)"/>
</svg>
