<svg xmlns="http://www.w3.org/2000/svg" width="27.923" height="19.633" viewBox="0 0 27.923 19.633">
  <path id="Icon_awesome-youtube" data-name="Icon awesome-youtube" d="M28.389,7.572a3.509,3.509,0,0,0-2.469-2.485C23.743,4.5,15.011,4.5,15.011,4.5S6.28,4.5,4.1,5.087A3.509,3.509,0,0,0,1.633,7.572a36.806,36.806,0,0,0-.583,6.765A36.806,36.806,0,0,0,1.633,21.1,3.456,3.456,0,0,0,4.1,23.546c2.178.587,10.909.587,10.909.587s8.732,0,10.909-.587A3.456,3.456,0,0,0,28.389,21.1a36.806,36.806,0,0,0,.583-6.765,36.806,36.806,0,0,0-.583-6.765ZM12.156,18.488v-8.3l7.3,4.152-7.3,4.152Z" transform="translate(-1.05 -4.5)"/>
</svg>
