<svg xmlns="http://www.w3.org/2000/svg" width="22.743" height="26.178" viewBox="0 0 22.743 26.178">
  <path id="Icon_simple-tiktok" data-name="Icon simple-tiktok" d="M14.313.022C15.742,0,17.16.011,18.578,0a6.794,6.794,0,0,0,1.909,4.548A7.692,7.692,0,0,0,25.112,6.5v4.4A11.675,11.675,0,0,1,20.53,9.838a13.476,13.476,0,0,1-1.767-1.014c-.011,3.185.011,6.37-.022,9.544a8.331,8.331,0,0,1-1.472,4.3,8.126,8.126,0,0,1-6.446,3.5,7.953,7.953,0,0,1-4.45-1.123,8.225,8.225,0,0,1-3.981-6.228c-.022-.545-.033-1.091-.011-1.625A8.211,8.211,0,0,1,11.9,9.9c.022,1.614-.044,3.229-.044,4.843a3.742,3.742,0,0,0-4.777,2.312,4.327,4.327,0,0,0-.153,1.756,3.712,3.712,0,0,0,3.818,3.13,3.664,3.664,0,0,0,3.021-1.756,2.517,2.517,0,0,0,.447-1.156c.109-1.952.065-3.894.076-5.846.011-4.4-.011-8.78.022-13.165Z" transform="translate(-2.369)"/>
</svg>
