<svg xmlns="http://www.w3.org/2000/svg" width="26.001" height="25.025" viewBox="0 0 26.001 25.025">
  <g id="Log_Out" data-name="Log Out" transform="translate(-2 -2)">
    <g id="Logout" transform="translate(2 2)">
      <path id="Path_33" data-name="Path 33" d="M11.878,0a5.605,5.605,0,0,1,5.64,5.555h0v5.993H9.879a.964.964,0,1,0,0,1.927h7.638v5.981a5.621,5.621,0,0,1-5.665,5.568h-6.2A5.608,5.608,0,0,1,0,19.469H0V5.568A5.621,5.621,0,0,1,5.665,0h6.212ZM20.7,8.2a.956.956,0,0,1,1.364-.013h0l3.654,3.641a.956.956,0,0,1,.288.688.927.927,0,0,1-.288.676h0l-3.654,3.641A.964.964,0,0,1,20.7,15.465h0l2-1.989h-5.18V11.549H22.7l-2-1.989A.967.967,0,0,1,20.7,8.2Z" transform="translate(0)"/>
    </g>
  </g>
</svg>
