<svg xmlns="http://www.w3.org/2000/svg" width="24.815" height="24.815" viewBox="0 0 24.815 24.815">
  <g id="Icon_feather-instagram" data-name="Icon feather-instagram" transform="translate(1.5 1.5)">
    <path id="Path_4" data-name="Path 4" d="M8.454,3H19.361a5.454,5.454,0,0,1,5.454,5.454V19.361a5.454,5.454,0,0,1-5.454,5.454H8.454A5.454,5.454,0,0,1,3,19.361V8.454A5.454,5.454,0,0,1,8.454,3Z" transform="translate(-3 -3)" fill="none" stroke="#000" stroke-linecap="round" stroke-linejoin="round" stroke-width="3"/>
    <path id="Path_5" data-name="Path 5" d="M20.744,15.658a4.363,4.363,0,1,1-3.676-3.676,4.363,4.363,0,0,1,3.676,3.676Z" transform="translate(-5.473 -5.438)" fill="none" stroke="#000" stroke-linecap="round" stroke-linejoin="round" stroke-width="3"/>
    <path id="Path_6" data-name="Path 6" d="M26.25,9.75h0" transform="translate(-9.344 -4.842)" fill="none" stroke="#000" stroke-linecap="round" stroke-linejoin="round" stroke-width="3"/>
  </g>
</svg>
